<svg id="Layer_1" data-name="Layer 1" xmlns="http://www.w3.org/2000/svg" xmlns:xlink="http://www.w3.org/1999/xlink" viewBox="0 0 500 500"><defs><style>.cls-1{fill:url(#linear-gradient);}.cls-2{fill:url(#linear-gradient-2);}.cls-3{fill:url(#linear-gradient-3);}.cls-4{fill:url(#linear-gradient-4);}.cls-5{fill:url(#linear-gradient-5);}.cls-10,.cls-6,.cls-7,.cls-8,.cls-9{fill:none;stroke-miterlimit:10;stroke-width:6px;}.cls-6{stroke:url(#linear-gradient-6);}.cls-7{stroke:url(#linear-gradient-7);}.cls-8{stroke:url(#linear-gradient-8);}.cls-9{stroke:url(#linear-gradient-9);}.cls-10{stroke:url(#linear-gradient-10);}</style><linearGradient id="linear-gradient" x1="-147.26" y1="349.33" x2="503.97" y2="-301.9" gradientUnits="userSpaceOnUse"><stop offset="0" stop-color="#fa9233"/><stop offset="0.51" stop-color="#fc8143"/><stop offset="0.99" stop-color="#ff6d56"/></linearGradient><linearGradient id="linear-gradient-2" x1="-24.63" y1="553.94" x2="567.78" y2="-38.47" xlink:href="#linear-gradient"/><linearGradient id="linear-gradient-3" x1="379.19" y1="62.65" x2="460.6" y2="62.65" xlink:href="#linear-gradient"/><linearGradient id="linear-gradient-4" x1="379.19" y1="420.4" x2="460.6" y2="420.4" xlink:href="#linear-gradient"/><linearGradient id="linear-gradient-5" x1="208.54" y1="242.53" x2="289.95" y2="242.53" xlink:href="#linear-gradient"/><linearGradient id="linear-gradient-6" x1="187.83" y1="242.53" x2="310.66" y2="242.53" xlink:href="#linear-gradient"/><linearGradient id="linear-gradient-7" x1="358.48" y1="420.4" x2="481.31" y2="420.4" xlink:href="#linear-gradient"/><linearGradient id="linear-gradient-8" x1="358.48" y1="62.65" x2="481.31" y2="62.65" xlink:href="#linear-gradient"/><linearGradient id="linear-gradient-9" x1="283.97" y1="150" x2="379.75" y2="150" xlink:href="#linear-gradient"/><linearGradient id="linear-gradient-10" x1="284" y1="333.78" x2="379.72" y2="333.78" xlink:href="#linear-gradient"/></defs><path class="cls-1" d="M216-.28H62.26c-23.59,0-42.71,20.75-42.71,46.35V172.48c0,25.59,19.12,46.35,42.71,46.35H96.43c23.59,0,42.71-20.76,42.71-46.35h0c0-25.6,19.12-46.35,42.71-46.35H216c23.59,0,42.72-20.75,42.72-46.35V46.07C258.74,20.47,239.61-.28,216-.28Z"/><path class="cls-2" d="M216,499.72H62.26c-23.59,0-42.71-20.75-42.71-46.34V327c0-25.6,19.12-46.35,42.71-46.35H96.43c23.59,0,42.71,20.75,42.71,46.35h0c0,25.6,19.12,46.35,42.71,46.35H216c23.59,0,42.72,20.75,42.72,46.35v33.71C258.74,479,239.61,499.72,216,499.72Z"/><ellipse class="cls-3" cx="419.9" cy="62.65" rx="40.7" ry="41.59"/><ellipse class="cls-4" cx="419.9" cy="420.4" rx="40.7" ry="41.59"/><ellipse class="cls-5" cx="249.24" cy="242.53" rx="40.7" ry="41.59"/><ellipse class="cls-6" cx="249.24" cy="242.53" rx="58.42" ry="59.68"/><ellipse class="cls-7" cx="419.9" cy="420.4" rx="58.42" ry="59.68"/><ellipse class="cls-8" cx="419.9" cy="62.65" rx="58.42" ry="59.68"/><line class="cls-9" x1="286.11" y1="196.25" x2="377.62" y2="103.75"/><line class="cls-10" x1="286.11" y1="288.82" x2="377.62" y2="378.74"/></svg>